<?xml version="1.0" encoding="utf-8"?>
<!-- Svg Vector Icons : http://www.onlinewebfonts.com/icon -->
<!DOCTYPE svg PUBLIC "-//W3C//DTD SVG 1.1//EN" "http://www.w3.org/Graphics/SVG/1.1/DTD/svg11.dtd">
<svg version="1.1" xmlns="http://www.w3.org/2000/svg" xmlns:xlink="http://www.w3.org/1999/xlink" x="0px" y="0px" viewBox="0 0 1000 1000" enable-background="new 0 0 1000 1000" xml:space="preserve">
<metadata> Svg Vector Icons : http://www.onlinewebfonts.com/icon </metadata>
<g><g transform="translate(0.000000,511.000000) scale(0.100000,-0.100000)"><path d="M8451.6,3509.7l-662-384.4L7779,2805l-10.7-322.5L5814.3,1355C4740.2,733.6,3858.2,229.6,3853.9,231.7c-4.3,4.3,19.2,100.4,49.1,213.5c49.1,177.2,53.4,215.7,29.9,269.1C3903,791.2,3856,819,3757.8,819c-121.7,0-149.5-53.4-279.7-546.7c-66.2-247.7-119.6-476.2-119.6-506.1c0-113.2,49.1-138.8,544.6-271.2c258.4-70.5,491.2-128.1,518.9-128.1c74.7,0,153.8,91.8,153.8,177.2c0,119.6-51.3,160.2-288.3,226.4c-209.3,57.6-211.4,59.8-160.2,91.8c29.9,19.2,911.9,529.6,1962.5,1136.1l1909.1,1101.9l266.9-153.8c147.4-85.4,275.5-153.8,288.3-149.5c25.6,6.4,1321.9,751.7,1345.4,773.1c10.7,8.5-151.6,115.3-356.6,237l-375.8,220v226.4c0,275.5-23.5,640.6-40.6,640.6C9120,3892,8816.8,3719,8451.6,3509.7z"/><path d="M3121.4,3016.4C1989.6,2907.5,966.7,2202.8,454.2,1179.9C319.7,912.9,210.8,596.9,151,300.1C82.7-39.5,82.7-646,153.1-974.8c147.4-698.3,431.4-1221.5,928.9-1721.2c399.3-397.2,768.8-632.1,1270.6-807.2c407.9-143.1,595.8-170.8,1101.9-170.8c382.2,0,480.5,6.4,664.1,47c642.8,138.8,1189.5,427.1,1650.7,869.2c533.9,512.5,862.7,1121.1,999.4,1857.9c55.5,299,49.1,914-12.8,1206.5c-47,222.1-168.7,615-220,715.4l-27.8,51.3l-209.3-117.5c-113.2-64.1-207.1-126-207.1-136.7c0-10.7,34.2-117.5,74.7-239.2c102.5-305.4,140.9-553.1,140.9-892.6c2.1-602.2-153.7-1127.5-476.2-1612.3c-147.4-220-480.5-565.9-694-719.7c-802.9-578.7-1838.7-706.8-2750.5-339.5c-375.8,151.6-651.3,333.1-950.3,630c-422.8,416.4-700.4,948.1-802.9,1535.4c-47,262.7-47,713.3,0,975.9c207.1,1159.6,1080.6,2065,2233.7,2317c217.8,47,738.9,66.2,963.1,34.2c501.8-72.6,946-254.1,1345.4-548.8c74.7-57.7,226.4-192.2,335.3-303.2l196.5-198.6l213.6,121.7l211.4,123.9l-68.3,85.4c-126,164.4-454.9,471.9-657.7,617.2c-237,168.7-636.4,371.6-905.4,459.1C4052.5,3012.1,3595.5,3061.2,3121.4,3016.4z"/><path d="M3102.2,1927.3c-190.1-29.9-557.4-153.8-726.1-247.7c-600.1-331-1018.6-899-1157.4-1565.3c-57.7-271.2-47-736.7,23.5-997.3c209.3-796.5,805.1-1411.6,1588.8-1637.9c1035.7-301.1,2161.1,190.1,2650.1,1155.3c211.4,414.3,299,946,228.5,1377.4C5684,159.1,5607.2,456,5579.4,496.5c-12.8,23.5-76.9-2.1-303.2-132.4c-155.9-89.7-296.8-170.8-311.8-181.5c-21.4-15-21.4-44.8,6.4-155.9c42.7-183.7,40.6-544.6-2.1-721.8c-111-446.3-410-822.2-809.4-1018.6c-420.7-207.1-822.2-228.5-1255.7-72.6c-459.1,168.7-832.8,580.8-956.7,1061.3c-59.8,230.6-57.7,578.7,2.1,796.5c128.1,454.9,405.7,790.1,822.2,993c262.7,128.1,467.7,168.7,756,153.8c348.1-17.1,642.8-126,886.2-324.6c66.2-53.4,126-96.1,134.6-96.1c25.6,0,625.7,350.2,625.7,365.2c0,8.5-68.3,79-151.6,158c-286.2,269.1-642.8,465.5-1037.8,568C3787.7,1940.1,3320.1,1961.5,3102.2,1927.3z"/><path d="M3172.7,368.4c-237-91.8-437.8-356.6-467.7-617.2c-27.8-254.1,108.9-553.1,320.3-698.3c294.7-202.9,694-168.7,948.2,79c168.7,162.3,177.3,153.8-226.3,256.3c-324.6,85.4-363,100.4-435.7,170.8c-117.5,115.3-121.7,181.5-29.9,521.1c42.7,158,76.9,296.8,76.9,309.6C3358.5,423.9,3298.7,417.5,3172.7,368.4z"/></g></g>
</svg>