<?xml version="1.0" encoding="utf-8"?>
<!-- Svg Vector Icons : http://www.onlinewebfonts.com/icon -->
<!DOCTYPE svg PUBLIC "-//W3C//DTD SVG 1.1//EN" "http://www.w3.org/Graphics/SVG/1.1/DTD/svg11.dtd">
<svg version="1.1" xmlns="http://www.w3.org/2000/svg" xmlns:xlink="http://www.w3.org/1999/xlink" x="0px" y="0px" viewBox="0 0 1000 1000" enable-background="new 0 0 1000 1000" xml:space="preserve">
<metadata> Svg Vector Icons : http://www.onlinewebfonts.com/icon </metadata>
<g><g transform="translate(0.000000,511.000000) scale(0.100000,-0.100000)"><path d="M5878.5,5042.9c-729-73.9-1452.1-393.5-2055.2-908.8c-85.9-73.9-217.7-203.7-293.6-287.6l-139.8-153.8l-1579.9,679.1c-868.8,371.5-1585.9,669.1-1593.9,661.1c-18-22-121.8-269.6-115.8-273.6c4-2,675.1-289.6,1494-641.1c818.9-349.5,1512-647.1,1541.9-661.1l53.9-28l-99.9-165.8c-399.5-655.1-587.2-1430.1-521.3-2167.1l26-277.6l-165.8-293.6l-165.8-295.6L1184.8-230.1C591.6-483.7,104.2-693.4,100.2-695.4c-6-6,97.9-253.7,115.8-275.6c6-8,407.5,155.8,890.8,363.5C1588.2-401.8,1987.7-234,1991.7-238c4-4-101.9-199.7-233.7-433.4l-239.7-429.4l593.2-167.8l591.2-169.8l6-982.7l4-980.7h798.9h798.9v-719v-719h159.8h159.8v878.8v878.8h-798.9h-798.9v938.7v936.7l-67.9,18c-357.5,99.9-942.7,271.7-954.7,281.6c-8,6,95.9,209.7,231.7,451.4L2487-18.3L3583.6,451c603.2,257.7,1098.5,471.4,1102.5,473.4c6,4-97.9,251.7-115.8,273.6c-8,8-413.4-155.8-900.8-365.5C3182.1,624.8,2776.6,455,2768.7,457c-8,4,24,73.9,69.9,155.8l85.9,151.8l-28,207.7c-38,287.6-20,781,35.9,1048.6c83.9,397.5,239.7,788.9,441.4,1120.5c55.9,91.9,105.9,167.8,107.9,167.8s245.7-103.9,541.3-229.7c293.6-125.8,541.3-223.7,547.3-215.7c18,22,121.8,269.6,115.8,275.6c-4,2-211.7,91.9-465.4,199.7c-251.7,105.9-475.4,203.7-495.3,213.7c-32,16-28,28,43.9,113.8c101.9,121.8,379.5,361.5,577.2,497.3c297.6,205.7,699.1,387.5,1046.6,475.4c1158.4,293.6,2376.8-37.9,3211.7-870.8c549.3-551.3,876.8-1248.3,960.7-2053.2c36-351.5,14-1292.3-37.9-1581.9c-179.8-998.7-713-1853.5-1535.9-2462.7l-165.8-123.8v-1192.4v-1194.4h159.8h159.8v1114.5v1112.5l153.8,119.8c749,583.2,1320.2,1516,1512,2470.7c73.9,363.5,97.9,733,85.9,1284.3c-12,541.3-42,777-143.8,1130.5c-289.6,1000.7-1032.6,1871.5-1989.3,2322.9C7186.7,4988.9,6509.6,5106.8,5878.5,5042.9z"/><path d="M5992.3,3129.4c-275.6-49.9-505.3-163.8-757-373.5c-389.5-327.6-842.9-715-842.9-725c0-6,153.8-139.8,341.5-299.6c741-631.2,769-651.1,1074.6-751c147.8-47.9,201.7-53.9,419.4-53.9s271.6,6,419.4,53.9c305.6,99.9,333.6,119.8,1074.5,751c187.8,159.8,341.6,293.6,341.6,299.6c0,10-449.4,395.5-852.9,733c-187.8,157.8-421.4,283.6-613.2,335.5C6447.7,3137.4,6132.1,3153.4,5992.3,3129.4z M6497.6,2799.9c217.7-55.9,345.5-137.8,715-451.4c193.7-165.8,353.5-309.6,353.5-317.6c0-8-159.8-151.8-353.5-317.6c-369.5-313.6-497.3-395.5-715-451.4c-245.7-61.9-537.3-30-778.9,89.9c-111.9,53.9-828.9,641.1-828.9,679.1c0,8,159.8,151.8,355.5,317.6c361.5,309.6,493.3,395.5,703.1,449.4C6094.2,2835.8,6349.8,2837.8,6497.6,2799.9z"/><path d="M6048.2,2638.1c-285.6-103.9-481.4-387.5-453.4-659.1c14-129.8,111.8-325.6,207.7-407.5c133.8-117.8,259.6-167.8,425.4-167.8c123.8,0,167.8,10,253.7,53.9c149.8,77.9,229.7,155.8,307.6,297.6c57.9,111.8,65.9,143.8,65.9,275.6c0,165.8-49.9,293.6-167.8,425.4C6539.6,2626.1,6244,2710,6048.2,2638.1z M6423.7,2298.5c87.9-65.9,127.8-161.8,117.9-293.6c-12-199.7-131.8-301.6-339.5-287.6c-199.7,12-301.6,131.8-287.6,339.5c8,131.8,51.9,205.7,155.8,259.7C6160.1,2364.5,6345.8,2354.5,6423.7,2298.5z"/><path d="M6068.2,433.1V273.3H6228h159.8v159.8v159.8H6228h-159.8V433.1z"/><path d="M6068.2-206.1v-159.8H6228h159.8v159.8v159.8H6228h-159.8V-206.1z"/><path d="M6068.2-845.2V-1005H6228h159.8v159.8v159.8H6228h-159.8V-845.2z"/><path d="M6060.2-1344.6c-229.7-57.9-449.4-243.7-557.2-475.4c-55.9-117.9-63.9-153.8-63.9-303.6s8-185.8,63.9-303.6c87.9-187.7,217.7-319.6,403.4-411.4c137.8-67.9,163.8-73.9,321.6-73.9c157.8,0,183.8,6,321.6,73.9c185.8,91.9,315.6,223.7,403.5,411.4c55.9,117.8,63.9,153.8,63.9,303.6s-8,185.8-63.9,303.6c-131.8,279.6-393.5,467.4-675.1,485.3C6200-1330.6,6104.2-1334.6,6060.2-1344.6z M6395.8-1666.1c107.8-30,241.7-159.8,279.6-271.6c143.8-421.4-211.7-776.9-633.2-633.1c-303.6,103.8-397.5,539.3-167.8,780.9c45.9,47.9,119.8,99.9,163.8,115.8C6134.1-1640.2,6289.9-1636.2,6395.8-1666.1z"/><path d="M6150.1-1989.7c-107.8-53.9-95.9-227.7,20-273.6c177.8-73.9,301.6,197.7,125.8,277.6C6234-1957.7,6210-1957.7,6150.1-1989.7z"/></g></g>
</svg>